<svg width="101" height="80" viewBox="0 0 101 80" fill="none" xmlns="http://www.w3.org/2000/svg">
<g clip-path="url(#clip0_656_1360)">
<path d="M77.38 66.88H23.5V13H77.38V66.88Z" fill="white"/>
<path d="M77.38 42.184V13.024H23.5V66.904H77.38V51.1841C77.26 51.1841 77.38 42.184 77.38 42.184Z" fill="#016FD0"/>
<path d="M70.78 39.184H74.86V29.704H70.42V31.024L69.58 29.704H65.74V31.384L65.02 29.704H57.94C57.7 29.704 57.46 29.824 57.22 29.824C56.98 29.824 56.86 29.944 56.62 30.064C56.38 30.184 56.26 30.184 56.02 30.304V29.704H35.74L35.14 31.264L34.54 29.704H29.74V31.384L29.02 29.704H25.18L23.5 33.784V39.184H26.26L26.74 37.864H27.7L28.18 39.184H49.3V37.984L50.14 39.184H56.02V38.464C56.14 38.584 56.38 38.584 56.5 38.704C56.62 38.824 56.86 38.824 56.98 38.944C57.22 39.064 57.46 39.064 57.7 39.064H62.02L62.5 37.744H63.46L63.94 39.064H69.82V37.864L70.78 39.184ZM77.38 51.184V42.304H44.38L43.54 43.504L42.7 42.304H33.1V51.784H42.7L43.54 50.584L44.38 51.784H50.38V49.744H50.14C50.98 49.744 51.7 49.624 52.3 49.384V51.904H56.62V50.704L57.46 51.904H75.34C76.06 51.664 76.78 51.544 77.38 51.184Z" fill="white"/>
<path d="M75.34 48.904H72.1V50.224H75.22C76.54 50.224 77.38 49.384 77.38 48.184C77.38 46.984 76.66 46.384 75.46 46.384H74.02C73.66 46.384 73.42 46.144 73.42 45.784C73.42 45.424 73.66 45.184 74.02 45.184H76.78L77.38 43.864H74.14C72.82 43.864 71.98 44.704 71.98 45.784C71.98 46.984 72.7 47.584 73.9 47.584H75.34C75.7 47.584 75.94 47.824 75.94 48.184C76.06 48.664 75.82 48.904 75.34 48.904ZM69.46 48.904H66.22V50.224H69.34C70.66 50.224 71.5 49.384 71.5 48.184C71.5 46.984 70.78 46.384 69.58 46.384H68.14C67.78 46.384 67.54 46.144 67.54 45.784C67.54 45.424 67.78 45.184 68.14 45.184H70.9L71.5 43.864H68.26C66.94 43.864 66.1 44.704 66.1 45.784C66.1 46.984 66.82 47.584 68.02 47.584H69.46C69.82 47.584 70.06 47.824 70.06 48.184C70.18 48.664 69.82 48.904 69.46 48.904ZM65.26 45.064V43.744H60.22V50.104H65.26V48.784H61.66V47.464H65.14V46.144H61.66V44.944H65.26V45.064ZM57.1 45.064C57.7 45.064 57.94 45.424 57.94 45.784C57.94 46.144 57.7 46.504 57.1 46.504H55.3V44.944L57.1 45.064ZM55.3 47.824H56.02L57.94 50.104H59.74L57.58 47.704C58.66 47.464 59.26 46.744 59.26 45.784C59.26 44.584 58.42 43.744 57.1 43.744H53.74V50.104H55.18L55.3 47.824ZM51.46 45.904C51.46 46.384 51.22 46.744 50.62 46.744H48.7V45.064H50.5C51.1 45.064 51.46 45.424 51.46 45.904ZM47.26 43.744V50.104H48.7V47.944H50.62C51.94 47.944 52.9 47.104 52.9 45.784C52.9 44.584 52.06 43.624 50.74 43.624L47.26 43.744ZM45.1 50.104H46.9L44.38 46.864L46.9 43.744H45.1L43.54 45.784L41.98 43.744H40.18L42.7 46.864L40.18 49.984H41.98L43.54 47.944L45.1 50.104ZM39.7 45.064V43.744H34.66V50.104H39.7V48.784H36.1V47.464H39.58V46.144H36.1V44.944H39.7V45.064ZM68.86 33.784L71.38 37.624H73.18V31.264H71.74V35.464L71.38 34.864L69.1 31.264H67.18V37.624H68.62V33.304L68.86 33.784ZM62.62 33.664L63.1 32.344L63.58 33.664L64.18 35.104H62.02L62.62 33.664ZM65.14 37.624H66.7L63.94 31.264H62.02L59.26 37.624H60.82L61.42 36.304H64.54L65.14 37.624ZM58.42 37.624L59.02 36.304H58.66C57.58 36.304 56.98 35.584 56.98 34.504V34.384C56.98 33.304 57.58 32.584 58.66 32.584H60.22V31.264H58.54C56.62 31.264 55.54 32.584 55.54 34.384V34.504C55.54 36.424 56.62 37.624 58.42 37.624ZM53.02 37.624H54.46V31.384H53.02V37.624ZM49.9 32.584C50.5 32.584 50.74 32.944 50.74 33.304C50.74 33.664 50.5 34.024 49.9 34.024H48.1V32.464L49.9 32.584ZM48.1 35.344H48.82L50.74 37.624H52.54L50.38 35.224C51.46 34.984 52.06 34.264 52.06 33.304C52.06 32.104 51.22 31.264 49.9 31.264H46.54V37.624H47.98L48.1 35.344ZM45.46 32.584V31.264H40.42V37.624H45.46V36.304H41.86V34.984H45.34V33.664H41.86V32.464H45.46V32.584ZM34.54 37.624H35.86L37.66 32.464V37.624H39.1V31.264H36.7L35.26 35.584L33.82 31.264H31.42V37.624H32.86V32.464L34.54 37.624ZM26.74 33.664L27.22 32.344L27.7 33.664L28.3 35.104H26.14L26.74 33.664ZM29.26 37.624H30.82L28.06 31.264H26.26L23.5 37.624H25.06L25.66 36.304H28.78L29.26 37.624Z" fill="#016FD0"/>
</g>
<defs>
<clipPath id="clip0_656_1360">
<rect width="54" height="54" fill="white" transform="translate(23.5 13)"/>
</clipPath>
</defs>
</svg>
