<svg width="179" height="80" viewBox="0 0 179 80" fill="none" xmlns="http://www.w3.org/2000/svg">
<path d="M98.9678 33.6163L105.785 31.1032L98.9678 28.5183V25L110.644 29.6672V32.5393L98.9678 37.2065V33.6163Z" fill="#A100FF"/>
<path d="M34.4963 55.8752C32.0306 55.8752 30 54.6546 30 51.9261V51.7825C30 48.4795 32.9009 47.3307 36.4544 47.3307H38.1224V46.6845C38.1224 45.3202 37.5422 44.5304 36.0918 44.5304C34.7864 44.5304 34.1337 45.2484 34.0612 46.2537H30.4351C30.7252 43.2379 33.1184 41.8019 36.3094 41.8019C39.5728 41.8019 41.966 43.1661 41.966 46.5409V55.588H38.2674V54.0084C37.5422 55.0136 36.3094 55.8752 34.4963 55.8752ZM38.1224 51.1363V49.8438H36.5995C34.7139 49.8438 33.7711 50.3464 33.7711 51.5671V51.7107C33.7711 52.6441 34.3513 53.2903 35.6567 53.2903C36.9621 53.2185 38.1224 52.5005 38.1224 51.1363ZM50.5961 55.8752C46.825 55.8752 44.0692 53.5775 44.0692 48.9822V48.7668C44.0692 44.1714 46.97 41.7301 50.5961 41.7301C53.7145 41.7301 56.2528 43.3097 56.5428 46.8281H52.9168C52.6992 45.5356 51.974 44.674 50.6686 44.674C49.0731 44.674 47.9128 45.9665 47.9128 48.6232V49.054C47.9128 51.7825 48.9281 53.0031 50.6686 53.0031C51.974 53.0031 52.9168 52.0697 53.1343 50.5618H56.6154C56.3978 53.7212 54.2947 55.8752 50.5961 55.8752ZM64.8103 55.8752C61.0392 55.8752 58.2834 53.5775 58.2834 48.9822V48.7668C58.2834 44.1714 61.1842 41.7301 64.8103 41.7301C67.9287 41.7301 70.467 43.3097 70.757 46.8281H67.131C66.9134 45.5356 66.1882 44.674 64.8828 44.674C63.2873 44.674 62.127 45.9665 62.127 48.6232V49.054C62.127 51.7825 63.1423 53.0031 64.8828 53.0031C66.1882 53.0031 67.131 52.0697 67.3485 50.5618H70.8296C70.612 53.7212 68.5089 55.8752 64.8103 55.8752ZM79.097 55.8752C75.1808 55.8752 72.4976 53.5775 72.4976 49.054V48.7668C72.4976 44.2432 75.3259 41.7301 79.0245 41.7301C82.433 41.7301 85.2613 43.597 85.2613 48.1205V49.772H76.3412C76.4862 52.2133 77.5741 53.1467 79.1695 53.1467C80.62 53.1467 81.4177 52.3569 81.7078 51.4235H85.2613C84.8262 53.9366 82.6506 55.8752 79.097 55.8752ZM76.4137 47.2589H81.4902C81.4177 45.2484 80.4749 44.3868 78.952 44.3868C77.7916 44.4586 76.7038 45.1048 76.4137 47.2589ZM87.582 42.0891H91.4256V44.0996C92.0783 42.8071 93.4562 41.8019 95.5594 41.8019C98.0251 41.8019 99.6931 43.3097 99.6931 46.5409V55.588H95.8495V47.1153C95.8495 45.5356 95.1968 44.8176 93.8189 44.8176C92.5135 44.8176 91.4256 45.6074 91.4256 47.3307V55.588H87.582V42.0891ZM106.728 37.9963V42.0891H109.338V44.8894H106.728V51.2799C106.728 52.2851 107.163 52.7877 108.106 52.7877C108.686 52.7877 109.048 52.7159 109.411 52.5723V55.5162C108.976 55.6598 108.178 55.8034 107.235 55.8034C104.262 55.8034 102.884 54.4392 102.884 51.7107V44.8894H101.289V42.0891H102.884V39.576L106.728 37.9963ZM123.698 55.588H119.927V53.5775C119.274 54.87 117.968 55.8752 115.938 55.8752C113.472 55.8752 111.659 54.3674 111.659 51.2081V42.0891H115.503V50.7054C115.503 52.2851 116.155 53.0031 117.461 53.0031C118.766 53.0031 119.854 52.1415 119.854 50.49V42.0891H123.698V55.588ZM126.526 42.0891H130.37V44.6022C131.167 42.8071 132.473 41.9455 134.503 41.9455V45.6792C131.893 45.6792 130.37 46.4691 130.37 48.695V55.6598H126.526V42.0891ZM142.263 55.8752C138.347 55.8752 135.664 53.5775 135.664 49.054V48.7668C135.664 44.2432 138.492 41.7301 142.191 41.7301C145.599 41.7301 148.427 43.597 148.427 48.1205V49.772H139.58C139.725 52.2133 140.813 53.1467 142.408 53.1467C143.859 53.1467 144.656 52.3569 144.946 51.4235H148.5C147.92 53.9366 145.817 55.8752 142.263 55.8752ZM139.507 47.2589H144.656C144.584 45.2484 143.641 44.3868 142.118 44.3868C140.958 44.4586 139.87 45.1048 139.507 47.2589Z" fill="#1E2532"/>
</svg>
