<svg width="126" height="80" viewBox="0 0 126 80" fill="none" xmlns="http://www.w3.org/2000/svg">
<path d="M84.2764 25.1188V40.4128L84.0801 40.5739L83.8839 40.7351L83.6959 40.9043L83.516 41.0735L83.3443 41.2428L83.1726 41.42L83.0091 41.5973L82.8456 41.7746V25.1188H65.6523V39.0429H64.2298V25.1188H47.0364V39.0671H45.6139V25.1188H28.4206V41.0171L24.0303 55.4328H27.8892L29.8268 49.0509H30.3827L33.5876 55.4328H38.2477L35.1409 49.0509H42.1883L40.2343 55.4328H44.4448L46.3742 49.067H47.3062V49.0509H48.6307H48.737H56.6918L54.8278 55.4167H59.0791L60.8859 49.0509H62.799L62.848 55.4167H66.4126L70.5086 49.0509H73.1902L71.8003 55.4167H75.9862L77.3516 49.0509H79.7716L79.7552 49.4135L79.7639 49.7842L79.7802 50.1387L79.8129 50.4933L79.8374 50.6625L79.8619 50.8317L79.8946 51.0009L79.9272 51.1701L79.9681 51.3393L80.0089 51.5005L80.058 51.6617L80.107 51.8228L80.1642 51.984L80.2215 52.1371L80.2869 52.2902L80.3523 52.4352L80.4259 52.5883L80.4996 52.7334L80.5814 52.8704L80.6631 53.0154L80.7531 53.1524L80.8512 53.2813L80.9493 53.4183L81.0556 53.5392L81.1619 53.6681L81.2682 53.789L81.3908 53.9098L81.5134 54.0226L81.6688 54.1516L81.8241 54.2805L81.9876 54.4014L82.1593 54.5142L82.331 54.627L82.5027 54.7317L82.6825 54.8203L82.8706 54.917L83.0504 54.9976L83.2385 55.0782L83.4265 55.1507L83.6227 55.2233L83.819 55.2878L84.0152 55.3442L84.2114 55.4005L84.4076 55.4489L84.8 55.5375L85.2006 55.602L85.5931 55.6584L85.9855 55.7068L86.3697 55.739L86.7458 55.7551L87.1137 55.7713H87.4653L87.9395 55.7636L88.4137 55.756L88.896 55.7318L89.3784 55.7076L89.8607 55.6673L90.3431 55.627L90.8255 55.5786L91.3078 55.5222L91.7983 55.4577L92.2889 55.3852L92.7794 55.3046L93.27 55.224L93.7605 55.1354L94.251 55.0387L94.7416 54.942L95.2403 54.8292L96.6955 49.0517H101.47V25.1195L84.2764 25.1188ZM30.0148 48.4546L30.0393 48.366L30.0966 48.4546H30.0148ZM44.9925 39.881L44.7473 40.6948L42.4581 48.1887L42.3681 48.4546H34.8466L34.2661 47.2298L42.3681 39.0671H37.1603L30.8242 45.7955L32.8763 39.0671H29.0337V25.7231H44.9925L44.9925 39.881ZM49.4319 46.2145L49.3093 46.2222L49.1948 46.2298L49.0722 46.2374H48.9414H48.7697H48.6225L48.4835 46.2451H48.3527L47.3308 46.2374L47.805 44.513L48.0257 43.6589L48.5653 41.6525H48.737H48.9168L49.0885 41.6448H49.252H50.0451L50.5274 41.6525L50.9689 41.6686L51.1651 41.6763L51.3532 41.6924L51.533 41.7166L51.6965 41.7408L51.8437 41.765L51.9827 41.8053L52.1135 41.8456L52.228 41.894L52.3261 41.9424L52.416 42.0069L52.4978 42.0714L52.5632 42.1519L52.604 42.2165L52.6367 42.281L52.6694 42.3535L52.6939 42.4341L52.7102 42.5227L52.7189 42.6113V42.708V42.8127L52.7102 42.9255L52.7025 43.0383L52.678 43.1673L52.6535 43.2962L52.5799 43.5702L52.4899 43.8764L52.4 44.1342L52.3019 44.384L52.1956 44.6177L52.0811 44.8353L52.0238 44.932L51.9666 45.0287L51.9011 45.1254L51.8275 45.2139L51.7539 45.3025L51.6803 45.3831L51.5985 45.4637L51.5167 45.5362L51.4267 45.6007L51.3368 45.6733L51.2387 45.7297L51.1324 45.7942L51.0261 45.8506L50.9116 45.8989L50.7972 45.9473L50.6745 45.9876L50.5437 46.036L50.4048 46.0682L50.2576 46.1004L50.1104 46.1326L49.9469 46.1568L49.7834 46.181L49.6117 46.1971L49.4319 46.2133L49.4319 46.2145ZM61.0576 48.4546L62.7336 42.5723L62.7991 48.4546H61.0576ZM63.6084 39.0429H59.6187L56.8717 48.4546H52.6367L52.833 48.3741L53.0292 48.2935L53.2172 48.2129L53.4052 48.1243L53.5851 48.0357L53.7568 47.931L53.9285 47.8343L54.092 47.7295L54.2555 47.6167L54.4108 47.5039L54.558 47.3911L54.7052 47.2622L54.8442 47.1413L54.975 47.0043L55.1058 46.8754L55.2284 46.7303L55.351 46.5934L55.4655 46.4402L55.5718 46.2952L55.6781 46.134L55.7762 45.9729L55.8661 45.8117L55.9561 45.6425L56.0379 45.4652L56.1197 45.288L56.1933 45.1107L56.2586 44.9254L56.3241 44.732L56.3731 44.5386L56.4304 44.3452L56.4712 44.1357L56.5121 43.9342L56.5693 43.6119L56.6184 43.3057L56.651 43.0156L56.6755 42.7416L56.6842 42.4677L56.6755 42.2179L56.6679 41.9681L56.6352 41.7344L56.6025 41.5168L56.5452 41.2993L56.4879 41.0978L56.4062 40.9044L56.3162 40.7191L56.2181 40.5338L56.1036 40.3646L55.9728 40.2034L55.8665 40.0906L55.7603 39.9778L55.6458 39.8811L55.5232 39.7925L55.3924 39.7039L55.2615 39.6233L55.1226 39.5508L54.9836 39.4863L54.8364 39.4217L54.6893 39.3734L54.5339 39.325L54.3786 39.2767L54.2151 39.2363L54.0516 39.2041L53.888 39.1719L53.7164 39.1477L53.3648 39.0994L53.0132 39.0752L52.6535 39.051L52.2856 39.0434H51.5498H50.8222H50.5933H50.1845H49.6776H49.1135H48.5657H48.0997H47.7727H47.6501V25.7236H63.6088L63.6084 39.0429ZM73.3047 48.4546H70.9092L74.5392 42.8141L73.3047 48.4546ZM82.2243 39.3088L82.2156 42.5723L82.0112 42.8543L81.8232 43.1444L81.6352 43.4345L81.4635 43.7246L81.3 44.0147L81.1365 44.3128L80.9975 44.6029L80.8585 44.893L80.7277 45.175L80.6132 45.4651L80.4987 45.7472L80.4006 46.0211L80.3107 46.2951L80.2289 46.561L80.1553 46.8189L80.0898 47.0767L80.049 47.2459L80.0081 47.4232L79.9673 47.5924L79.9346 47.7697L79.9019 47.9389L79.8774 48.1081L79.8529 48.2774L79.8366 48.4546H77.4902L79.4932 39.0671L72.7402 39.0595L66.6984 48.455H66.2569V25.7235H82.2239L82.2243 39.3088ZM91.43 52.2983L91.0948 52.3547L90.7514 52.403L90.4081 52.4514L90.0729 52.4917L89.7377 52.5239L89.4025 52.5481L89.0754 52.5643H88.7484H88.5359L88.3233 52.5566L88.1189 52.5405L87.9145 52.5163L87.7183 52.4841L87.5302 52.4519L87.3422 52.4115L87.1623 52.3632L86.9907 52.3068L86.819 52.2504L86.6555 52.1779L86.5001 52.1053L86.3448 52.0167L86.1976 51.9281L86.0586 51.8314L85.9278 51.7347L85.797 51.6219L85.6826 51.501L85.5681 51.3802L85.4618 51.2432L85.3637 51.1062L85.2738 50.9531L85.192 50.8L85.1102 50.6388L85.0447 50.4696L84.9874 50.2843L84.9384 50.099L84.8894 49.9056L84.8567 49.7041L84.8322 49.4946L84.8159 49.277L84.8072 49.0514H92.2471L91.43 52.2983ZM100.865 48.4546H96.8423L97.5045 45.8277H89.4433L88.7811 48.4546H84.8813V47.9147L84.9304 47.6891L84.9712 47.4635L85.0202 47.2218L85.0692 46.98L85.1429 46.7141L85.2165 46.4482L85.2983 46.1823L85.3882 45.9244L85.4863 45.6666L85.5926 45.4087L85.7071 45.1589L85.8215 44.9091L85.9523 44.6593L86.0831 44.4257L86.2221 44.1839L86.3775 43.9583L86.5328 43.7327L86.6881 43.5151L86.8598 43.3056L87.0397 43.1041L87.2277 42.9107L87.4158 42.7335L87.6202 42.5562L87.8245 42.387L88.0371 42.2339L88.266 42.0888L88.495 41.9599L88.732 41.839L88.9773 41.7262L89.2308 41.6295L89.4924 41.549L89.7622 41.4845L90.0401 41.4281L90.3263 41.3877L90.6206 41.3636L90.9231 41.3559L91.1602 41.3636L91.3973 41.3797L91.6344 41.4119L91.8633 41.4603L91.9778 41.4925L92.084 41.5247L92.1903 41.5569L92.2884 41.6053L92.3865 41.6456L92.4846 41.702L92.5746 41.7584L92.6646 41.8148L92.7463 41.8873L92.8281 41.9598L92.9018 42.0324L92.9754 42.121L93.0408 42.2016L93.0981 42.2982L93.1471 42.403L93.1961 42.5077L93.237 42.6206L93.2697 42.7414L93.2942 42.8623L93.3187 42.9993L93.3273 43.1363V43.2813V43.4344L93.311 43.5956H98.1182L98.1919 43.2652L98.2573 42.8865L98.29 42.685L98.3063 42.4675L98.3227 42.2499V42.0243L98.315 41.7906L98.2905 41.5489L98.266 41.436L98.2496 41.3152L98.2169 41.1943L98.1843 41.0734L98.1434 40.9445L98.1026 40.8236L98.0536 40.7028L97.9963 40.5819L97.939 40.461L97.8654 40.3402L97.7918 40.2193L97.71 40.0984L97.6119 39.9695L97.5056 39.8486L97.3993 39.7277L97.2848 39.6149L97.1622 39.5021L97.0314 39.3974L96.9006 39.3007L96.7616 39.204L96.6144 39.1073L96.4673 39.0267L96.312 38.9462L96.1484 38.8656L95.9849 38.793L95.8132 38.7205L95.6334 38.656L95.4535 38.5915L95.2736 38.5351L95.0774 38.4867L94.8894 38.4384L94.685 38.39L94.4806 38.3497L94.2762 38.3093L94.0637 38.2771L93.8429 38.253L93.3933 38.2046L92.9354 38.1643L92.4531 38.1481L91.9625 38.1405L91.5946 38.1481L91.2104 38.1558L90.8098 38.1799L90.3928 38.2121L89.9595 38.2605L89.518 38.3169L89.0684 38.3894L88.6105 38.4861L88.3816 38.5345L88.1445 38.5909L87.9156 38.6554L87.6785 38.7199L87.4414 38.7924L87.2043 38.873L86.9672 38.9536L86.7383 39.0422L86.5012 39.1389L86.2641 39.2436L86.0352 39.3484L85.7981 39.4612L85.5692 39.5821L85.3403 39.711L85.1114 39.8399L84.8824 39.985V25.7224H100.866V48.4539L100.865 48.4546Z" fill="#003087"/>
</svg>
